<?xml version="1.0" encoding="UTF-8"?>
<svg version="1.1" xmlns="http://www.w3.org/2000/svg" width="140" height="140">
<path d="M0 0 C46.2 0 92.4 0 140 0 C140 46.2 140 92.4 140 140 C93.8 140 47.6 140 0 140 C0 93.8 0 47.6 0 0 Z " fill="#FAFAFA" transform="translate(0,0)"/>
<path d="M0 0 C1.98 0.495 1.98 0.495 4 1 C4 4.63 4 8.26 4 12 C46.9 12 89.8 12 134 12 C134 8.37 134 4.74 134 1 C135.32 0.67 136.64 0.34 138 0 C139.66099774 1.66099774 139.11958781 3.66208259 139.12442875 5.8800211 C139.12083064 6.57905017 139.11723253 7.27807924 139.11352539 7.99829102 C139.11364593 8.74182548 139.11376646 9.48535994 139.11389065 10.25142574 C139.11314159 12.66894921 139.10551371 15.0863965 139.09765625 17.50390625 C139.09618681 18.99214643 139.09516611 20.48038713 139.09460449 21.96862793 C139.08935187 27.49992648 139.07539078 33.03121398 139.0625 38.5625 C139.041875 50.916875 139.02125 63.27125 139 76 C92.8 76 46.6 76 -1 76 C-1.020625 63.645625 -1.04125 51.29125 -1.0625 38.5625 C-1.071604 34.65607666 -1.08070801 30.74965332 -1.09008789 26.72485352 C-1.09460449 21.96862793 -1.09460449 21.96862793 -1.09544373 19.74473572 C-1.09698316 18.1856101 -1.10050807 16.6264857 -1.10557556 15.06736755 C-1.11285399 12.71098754 -1.11390739 10.35468052 -1.11352539 7.99829102 C-1.1171235 7.29926194 -1.12072161 6.60023287 -1.12442875 5.8800211 C-1.11402634 1.11402634 -1.11402634 1.11402634 0 0 Z " fill="#0B0B0B" transform="translate(1,64)"/>
<path d="M0 0 C1.51014427 0.38673386 1.51014427 0.38673386 3.05079651 0.78128052 C5.16847145 1.32479483 7.28540148 1.87121907 9.40161133 2.42041016 C12.61445096 3.25406171 15.82942882 4.0789927 19.04492188 4.90234375 C21.11341222 5.43438692 23.18177589 5.96692282 25.25 6.5 C26.67233192 6.86579666 26.67233192 6.86579666 28.12339783 7.23898315 C29.93057276 7.70863112 31.73581574 8.18579292 33.53878784 8.67132568 C35.37404561 9.16357957 37.2150337 9.63477463 39.06008911 10.08892822 C39.96846527 10.32786804 40.87684143 10.56680786 41.81274414 10.81298828 C42.63053848 11.01900665 43.44833282 11.22502502 44.29090881 11.43728638 C46.19140625 12.3828125 46.19140625 12.3828125 46.96507263 14.48092651 C47.03976273 15.10854889 47.11445282 15.73617126 47.19140625 16.3828125 C42.12585052 18.64665042 37.05378283 20.48038478 31.7578125 22.125 C30.9622142 22.37524933 30.16661591 22.62549866 29.34690857 22.8833313 C26.81696017 23.67822695 24.28547782 24.46810355 21.75390625 25.2578125 C19.2643564 26.03872403 16.77511842 26.82062162 14.28598022 27.60284424 C12.64497142 28.11674739 11.00306265 28.6277857 9.36026001 29.13592529 C5.459825 30.34375588 1.57762409 31.58127389 -2.28173828 32.91503906 C-15.53280176 37.44280808 -15.53280176 37.44280808 -22.80859375 35.3828125 C-23.92105469 35.0822998 -25.03351562 34.78178711 -26.1796875 34.47216797 C-30.24417397 33.31729675 -34.27635315 32.08191052 -38.30859375 30.8203125 C-39.76876847 30.36796598 -41.22905622 29.91598414 -42.68945312 29.46435547 C-45.63944495 28.55056561 -48.58768193 27.63134646 -51.53515625 26.70947266 C-55.51308216 25.46883795 -59.50283426 24.27237 -63.49609375 23.08203125 C-65.7671572 22.39138124 -68.03800462 21.7000203 -70.30859375 21.0078125 C-71.36369141 20.69900146 -72.41878906 20.39019043 -73.50585938 20.07202148 C-74.46169922 19.77497314 -75.41753906 19.4779248 -76.40234375 19.171875 C-77.23443359 18.92131348 -78.06652344 18.67075195 -78.92382812 18.41259766 C-80.80859375 17.3828125 -80.80859375 17.3828125 -81.58398438 15.27099609 C-81.65810547 14.64789551 -81.73222656 14.02479492 -81.80859375 13.3828125 C-78.82703461 11.39510641 -76.91459976 10.76692506 -73.48046875 9.9375 C-72.38516846 9.66873047 -71.28986816 9.39996094 -70.16137695 9.12304688 C-68.9724585 8.83751953 -67.78354004 8.55199219 -66.55859375 8.2578125 C-64.0256129 7.64238705 -61.49307682 7.02512878 -58.9609375 6.40625 C-58.30220139 6.24554016 -57.64346527 6.08483032 -56.96476746 5.91925049 C-52.08166955 4.71915434 -47.22641018 3.43117249 -42.375 2.109375 C-40.29798108 1.54967898 -38.22071488 0.99090766 -36.14343262 0.43218994 C-34.80754407 0.06928982 -33.47310191 -0.29898222 -32.14025879 -0.6729126 C-30.25893443 -1.19997046 -28.37169904 -1.70578474 -26.484375 -2.2109375 C-25.41098877 -2.50677734 -24.33760254 -2.80261719 -23.23168945 -3.10742188 C-15.29294883 -4.28965498 -7.65109713 -1.99612171 0 0 Z " fill="#020202" transform="translate(87.80859375,7.6171875)"/>
<path d="M0 0 C21.45 0 42.9 0 65 0 C65 4.62 65 9.24 65 14 C63.35 12.68 61.7 11.36 60 10 C56.49822976 8.9056968 54.78915137 8.68058159 51.375 10.0625 C47.67110922 13.08409511 45.34952316 15.69102881 44.61328125 20.5546875 C44.36891691 26.63851687 45.05812503 32.14565397 49 37 C52.43924321 39.0868861 54.97667675 39.57476046 59 39 C62.93390584 35.8894698 64.98790305 32.55369309 67 28 C71.29 28 75.58 28 80 28 C80.5775 29.258125 81.155 30.51625 81.75 31.8125 C83.39743526 35.06704868 84.58798914 37.39434783 88 39 C91.84958758 39.57334283 93.43575652 39.3805363 96.6875 37.1875 C98.485545 35.48664662 100.249876 33.750124 102 32 C102 34.97 102 37.94 102 41 C55.8 41 9.6 41 -38 41 C-38 37.37 -38 33.74 -38 30 C-37.34 30.99 -36.68 31.98 -36 33 C-33.45954713 36.53678072 -33.45954713 36.53678072 -30 39 C-26.11204889 39.25356203 -23.21536211 39.32836566 -20 37 C-17.80682333 33.91330691 -16.93153627 31.7261451 -16 28 C-11.71 28 -7.42 28 -3 28 C-1.79557292 30.27864583 -0.59114583 32.55729167 0.61328125 34.8359375 C1.96778724 37.26834043 1.96778724 37.26834043 5 39 C8.20438763 39.39604791 10.95279138 39.06198689 14 38 C17.55408996 35.00149192 18.79198893 31.54493662 19.40234375 27.01171875 C19.57804478 21.36820159 19.36989402 16.74281381 16 12 C12.91479997 9.94319998 12.08726496 9.70533186 8.5625 9.6875 C7.80066406 9.67074219 7.03882813 9.65398437 6.25390625 9.63671875 C3.48168396 9.90430453 3.48168396 9.90430453 0 13 C0 8.71 0 4.42 0 0 Z " fill="#F9F9F9" transform="translate(38,99)"/>
<path d="M0 0 C5.2088486 0.16054843 10.00740915 1.93200268 14.92138672 3.53662109 C15.95554718 3.86481842 16.98970764 4.19301575 18.0552063 4.53115845 C21.34963896 5.57822523 24.63955777 6.63866957 27.92919922 7.70068359 C31.21233219 8.75340896 34.49635735 9.80319226 37.7817688 10.8487854 C39.82123428 11.49859381 41.85930985 12.15278674 43.89572144 12.81210327 C55.16482427 16.94600759 55.16482427 16.94600759 66.69873047 15.98193359 C67.69582031 15.64508545 68.69291016 15.3082373 69.72021484 14.96118164 C70.75855469 14.58646729 71.79689453 14.21175293 72.86669922 13.82568359 C75.08095857 13.07006267 77.29581151 12.31617912 79.51123047 11.56396484 C80.60902832 11.18449707 81.70682617 10.8050293 82.83789062 10.4140625 C87.54076991 8.82263728 92.29002563 7.4081548 97.05419922 6.01318359 C102.42386861 4.43546581 107.73987316 2.78455617 113.01733398 0.91796875 C116.10405315 0.02040424 118.87713232 0.00149309 122.05419922 0.32568359 C124.05419922 2.32568359 124.05419922 2.32568359 124.05419922 5.32568359 C101.4285086 13.37350647 101.4285086 13.37350647 90.50219727 16.44799805 C86.41748755 17.6043619 82.38677594 18.86597053 78.36279297 20.22021484 C77.37931885 20.54755615 76.39584473 20.87489746 75.38256836 21.2121582 C73.45967677 21.85577133 71.54061041 22.51096602 69.6262207 23.17944336 C59.47163047 26.55379765 51.83494404 23.48251739 41.92919922 20.32568359 C39.34739765 19.5085405 36.76538055 18.69210743 34.18310547 17.87646484 C33.19049965 17.56193108 33.19049965 17.56193108 32.17784119 17.24104309 C27.39024455 15.72952544 22.58486366 14.2873122 17.76904297 12.86865234 C15.77822149 12.2755413 13.78784802 11.6809545 11.79766846 11.08569336 C9.89189075 10.52065259 7.98159867 9.97091101 6.07128906 9.42138672 C4.91709473 9.07398438 3.76290039 8.72658203 2.57373047 8.36865234 C1.55384033 8.06983154 0.5339502 7.77101074 -0.5168457 7.46313477 C-2.94580078 6.32568359 -2.94580078 6.32568359 -4.29077148 4.19799805 C-4.50693115 3.58013428 -4.72309082 2.96227051 -4.94580078 2.32568359 C-2.94580078 0.32568359 -2.94580078 0.32568359 0 0 Z " fill="#070707" transform="translate(10.94580078125,32.67431640625)"/>
<path d="M0 0 C7.6773118 -0.46287327 13.6449797 1.14195143 20.875 3.625 C23.08841689 4.35975099 25.30195996 5.09412198 27.515625 5.828125 C28.60681641 6.19486328 29.69800781 6.56160156 30.82226562 6.93945312 C35.40711456 8.46961475 40.01375202 9.92675535 44.625 11.375 C45.37507324 11.61299316 46.12514648 11.85098633 46.89794922 12.09619141 C48.28845929 12.53601751 49.68079952 12.97011374 51.07519531 13.39746094 C52.90340619 13.96976236 54.71423296 14.59675072 56.5234375 15.2265625 C62.93811323 16.65364766 68.46780314 15.03824448 74.625 13 C80.27612559 11.1632774 85.94657253 9.40219885 91.640625 7.703125 C92.65115433 7.4015448 92.65115433 7.4015448 93.68209839 7.09387207 C96.43419635 6.27344687 99.18666568 5.45428853 101.9397583 4.63720703 C103.89519945 4.05656127 105.84997878 3.47373079 107.8046875 2.890625 C108.94921387 2.55063477 110.09374023 2.21064453 111.27294922 1.86035156 C113.9291339 1.1010105 113.9291339 1.1010105 116 0 C117.70702735 -0.06996014 119.41668003 -0.08440154 121.125 -0.0625 C122.03507812 -0.05347656 122.94515625 -0.04445312 123.8828125 -0.03515625 C124.93082031 -0.01775391 124.93082031 -0.01775391 126 0 C126.33 1.32 126.66 2.64 127 4 C122.33863977 6.07047303 117.72752523 7.80374058 112.84375 9.3046875 C112.1789563 9.51054474 111.5141626 9.71640198 110.82922363 9.92849731 C108.72056625 10.58090829 106.61041266 11.22829194 104.5 11.875 C101.73888886 12.72432349 98.97854093 13.5760842 96.21875 14.4296875 C95.53804443 14.63994568 94.85733887 14.85020386 94.15600586 15.0668335 C88.20057554 16.91629447 82.2894271 18.88605006 76.38476562 20.89111328 C64.57638931 24.75966819 57.54617992 23.86095551 45.875 20.0625 C44.60464804 19.65647251 43.33397125 19.25146004 42.06298828 18.84741211 C40.08105514 18.21697418 38.09947459 17.58556081 36.11911011 16.95021057 C31.34080253 15.4180519 26.54991644 13.93169385 21.75 12.46875 C20.41681836 12.06115274 19.08364762 11.65351981 17.75048828 11.24584961 C15.20300976 10.46714143 12.65436844 9.69264279 10.10498047 8.92016602 C8.37852295 8.38927368 8.37852295 8.38927368 6.6171875 7.84765625 C5.60253418 7.53836182 4.58788086 7.22906738 3.54248047 6.91040039 C1 6 1 6 -2 4 C-1.34 2.68 -0.68 1.36 0 0 Z " fill="#070707" transform="translate(8,46)"/>
<path d="M0 0 C42.57 0 85.14 0 129 0 C129 2.31 129 4.62 129 7 C86.43 7 43.86 7 0 7 C0 4.69 0 2.38 0 0 Z " fill="#FEFEFE" transform="translate(6,84)"/>
<path d="M0 0 C6.6 0.33 13.2 0.66 20 1 C20 5.29 20 9.58 20 14 C17.525 12.515 17.525 12.515 15 11 C12.23108567 10.37070129 9.77419013 10.38226536 7 11 C4.08209475 13.2504197 4.08209475 13.2504197 2 16 C1.34 16.66 0.68 17.32 0 18 C0 12.06 0 6.12 0 0 Z " fill="#F3F3F3" transform="translate(0,98)"/>
<path d="M0 0 C6.6 0 13.2 0 20 0 C20 5.61 20 11.22 20 17 C18.68 15.35 17.36 13.7 16 12 C12.37087045 9.5805803 9.22623287 9.28014715 5 10 C2.525 11.485 2.525 11.485 0 13 C0 8.71 0 4.42 0 0 Z " fill="#F1F1F1" transform="translate(120,99)"/>
<path d="M0 0 C5.5631769 0.48375451 5.5631769 0.48375451 7.375 2.625 C8.24578333 5.93397664 8.36512105 8.59220353 8 12 C6.3125 14.5 6.3125 14.5 4 16 C1.4375 16.0625 1.4375 16.0625 -1 15 C-3.43072904 12.16414945 -4.02797081 10.68528496 -3.875 6.9375 C-3.00106206 4.00356549 -2.01266065 2.27518161 0 0 Z " fill="#F7F7F7" transform="translate(9,115)"/>
<path d="M0 0 C3.31317555 0.26863586 4.63876354 0.59059868 6.875 3.125 C8.34132638 6.87227854 8.00205083 9.13494678 7 13 C5.8125 15 5.8125 15 4 16 C0.9375 15.9375 0.9375 15.9375 -2 15 C-3.86564391 12.71034611 -4.00108037 10.99153709 -4.375 8.0625 C-3.91444612 4.30130997 -2.55991819 2.71991308 0 0 Z " fill="#F7F7F7" transform="translate(127,115)"/>
<path d="M0 0 C2.375 0.9375 2.375 0.9375 4.375 3.9375 C4.67578125 6.09375 4.67578125 6.09375 4.6875 8.4375 C4.70425781 9.2109375 4.72101563 9.984375 4.73828125 10.78125 C4.28696159 13.46005054 3.55844781 14.35603079 1.375 15.9375 C-1.6875 15.8125 -1.6875 15.8125 -4.625 14.9375 C-7.07949095 11.25576358 -7.32060229 8.21416592 -6.625 3.9375 C-4.58594256 0.84115352 -3.74721416 -0.08921938 0 0 Z " fill="#F8F8F8" transform="translate(94.625,115.0625)"/>
<path d="M0 0 C2.375 0.9375 2.375 0.9375 4.375 3.9375 C4.91902291 10.79218862 4.91902291 10.79218862 3.1875 14.4375 C1.375 15.9375 1.375 15.9375 -1.125 16.4375 C-3.625 15.9375 -3.625 15.9375 -5.4375 14.4375 C-7.12094152 10.89341258 -7.33427305 7.79121688 -6.625 3.9375 C-4.58594256 0.84115352 -3.74721416 -0.08921938 0 0 Z " fill="#F9F9F9" transform="translate(47.625,115.0625)"/>
<path d="M0 0 C1.98 0 3.96 0 6 0 C6 6.6 6 13.2 6 20 C4.02 20 2.04 20 0 20 C0 13.4 0 6.8 0 0 Z " fill="#F4F4F4" transform="translate(108,99)"/>
<path d="M0 0 C1.98 0 3.96 0 6 0 C6 6.6 6 13.2 6 20 C4.02 20 2.04 20 0 20 C0 13.4 0 6.8 0 0 Z " fill="#FBFBFB" transform="translate(26,99)"/>
<path d="M0 0 C0.33 0 0.66 0 1 0 C1 2.97 1 5.94 1 9 C-1.64 9 -4.28 9 -7 9 C-7 8.34 -7 7.68 -7 7 C-5.34614767 5.65080468 -3.678298 4.31866272 -2 3 C-1.34 2.01 -0.68 1.02 0 0 Z " fill="#F3F3F3" transform="translate(139,131)"/>
</svg>
